<svg xmlns="http://www.w3.org/2000/svg" width="128.719" height="48.563" viewBox="0 0 128.719 48.563">
  <metadata><?xpacket begin="﻿" id="W5M0MpCehiHzreSzNTczkc9d"?>
<x:xmpmeta xmlns:x="adobe:ns:meta/" x:xmptk="Adobe XMP Core 5.6-c142 79.160924, 2017/07/13-01:06:39        ">
   <rdf:RDF xmlns:rdf="http://www.w3.org/1999/02/22-rdf-syntax-ns#">
      <rdf:Description rdf:about=""/>
   </rdf:RDF>
</x:xmpmeta>
                                                                                                    
                                                                                                    
                                                                                                    
                                                                                                    
                                                                                                    
                                                                                                    
                                                                                                    
                                                                                                    
                                                                                                    
                                                                                                    
                                                                                                    
                                                                                                    
                                                                                                    
                                                                                                    
                                                                                                    
                                                                                                    
                                                                                                    
                                                                                                    
                                                                                                    
                                                                                                    
                           
<?xpacket end="w"?></metadata>
<defs>
    <style>
      .cls-1 {
        fill: #579e10;
        fill-rule: evenodd;
      }
    </style>
  </defs>
  <path id="logo_copy_8" data-name="logo copy 8" class="cls-1" d="M103.505,10.554s-0.153,11.615-8.725,11.615c-6.059,0-1.424-6.465,1.089-7.72C99.336,12.587,101.342,12.3,103.505,10.554Zm-4.636,6.087s-9.79,2.816-10.479,10.7C90.3,21.125,98.869,16.641,98.869,16.641ZM20.142,40.307H137.968v18.8H20.142v-18.8ZM142.072,15.418V11.561h-1.217V10.745h3.208v0.816h-1.189v3.857h-0.8Zm2.464,0V10.745h1.256l0.734,3.222,0.711-3.222h1.256v4.673h-0.764V11.691l-0.86,3.728H146.15L145.3,11.691v3.728h-0.763ZM44.954,45.175H51l0.826,2.705-0.942.4a3.84,3.84,0,0,0-.558-1.066,1.549,1.549,0,0,0-.705-0.538,2.8,2.8,0,0,0-.9-0.132H47.614v2.135h0.364a1.4,1.4,0,0,0,.553-0.071,0.405,0.405,0,0,0,.2-0.219,1.825,1.825,0,0,0,.062-0.6V47.463h0.925V51.08H48.8V50.715a1.476,1.476,0,0,0-.075-0.549,0.43,0.43,0,0,0-.206-0.232,1.628,1.628,0,0,0-.576-0.062H47.614v1.962a1.541,1.541,0,0,0,.024.38,0.2,0.2,0,0,0,.1.105,0.921,0.921,0,0,0,.325.036h0.608a2.591,2.591,0,0,0,1.148-.229,2.282,2.282,0,0,0,.833-0.744,3.853,3.853,0,0,0,.564-1.216l0.949,0.386-0.949,3.178H44.954V52.547h0.182a1.235,1.235,0,0,0,.487-0.063A0.341,0.341,0,0,0,45.8,52.27a2.83,2.83,0,0,0,.026-0.52V47.089a1.776,1.776,0,0,0-.045-0.5,0.347,0.347,0,0,0-.138-0.175,0.8,0.8,0,0,0-.369-0.057H44.954V45.175h0Zm7.65,0h3.531V46.36H55.9a1.1,1.1,0,0,0-.415.043,0.39,0.39,0,0,0-.179.19,1.27,1.27,0,0,0-.055.461v2.273l2.258-2.471a1.625,1.625,0,0,0,.183-0.224,0.249,0.249,0,0,0,.03-0.1,0.151,0.151,0,0,0-.059-0.129,0.62,0.62,0,0,0-.305-0.043H57.069V45.175h3.278V46.36h-0.11a1.274,1.274,0,0,0-.316.027,0.724,0.724,0,0,0-.216.121,2.466,2.466,0,0,0-.33.3L57.625,48.6l2.086,3.33a1.968,1.968,0,0,0,.4.508,0.863,0.863,0,0,0,.479.112h0.14v1.183H57.069V52.547h0.146A1.51,1.51,0,0,0,57.7,52.5a0.128,0.128,0,0,0,.085-0.111,1.094,1.094,0,0,0-.16-0.35L56.353,49.9l-1.1,1.11v0.864a1.286,1.286,0,0,0,.052.442,0.333,0.333,0,0,0,.149.174,0.914,0.914,0,0,0,.386.054h0.3v1.183H52.6V52.547h0.264a0.993,0.993,0,0,0,.412-0.058,0.341,0.341,0,0,0,.149-0.189,1.761,1.761,0,0,0,.042-0.5V47.126a1.82,1.82,0,0,0-.046-0.51,0.373,0.373,0,0,0-.15-0.193A0.772,0.772,0,0,0,52.9,46.36H52.6V45.175h0ZM65,45.027a3.511,3.511,0,0,1,2.792,1.24,4.707,4.707,0,0,1,1.067,3.182,5.249,5.249,0,0,1-.49,2.318,3.706,3.706,0,0,1-1.347,1.562,3.776,3.776,0,0,1-2.075.548,3.525,3.525,0,0,1-2.628-1.043,4.58,4.58,0,0,1-1.236-3.36,4.7,4.7,0,0,1,1.083-3.2A3.574,3.574,0,0,1,65,45.027h0Zm0.021,1.362a1.5,1.5,0,0,0-1.314.73,4.2,4.2,0,0,0-.614,2.374,4.058,4.058,0,0,0,.571,2.3,1.536,1.536,0,0,0,2.607,0,4.112,4.112,0,0,0,.576-2.312,5.12,5.12,0,0,0-.247-1.712,2.3,2.3,0,0,0-.668-1.036,1.424,1.424,0,0,0-.913-0.344h0Zm4.71,3.489h2.815v1.465H69.731V49.878h0Zm6.387-1.313h1.652a2.6,2.6,0,0,1,1.971.744,2.559,2.559,0,0,1,.714,1.846,2.722,2.722,0,0,1-.649,1.8,2.6,2.6,0,0,1-2.1.777H73.459V52.547h0.349a0.487,0.487,0,0,0,.436-0.142,1.429,1.429,0,0,0,.084-0.613v-4.7a1.1,1.1,0,0,0-.105-0.589A0.656,0.656,0,0,0,73.7,46.36H73.459V45.175h6.047L80.33,47.88l-0.939.4a2.922,2.922,0,0,0-.849-1.362,2.112,2.112,0,0,0-1.318-.374H76.118v2.023h0Zm0,3.773h1.221a1.154,1.154,0,0,0,.948-0.354,1.271,1.271,0,0,0,.287-0.836,1.288,1.288,0,0,0-.2-0.743,1.02,1.02,0,0,0-.461-0.4,2.119,2.119,0,0,0-.762-0.105H76.118v2.435h0Zm5.016-7.163h3.828a3.566,3.566,0,0,1,1.209.176,2.148,2.148,0,0,1,.824.531,2.493,2.493,0,0,1,.534.842,2.886,2.886,0,0,1,.186,1.033A2.546,2.546,0,0,1,87,49.6a2.592,2.592,0,0,1-1.969.743H83.793v1.6a1.166,1.166,0,0,0,.037.38,0.325,0.325,0,0,0,.142.171,0.666,0.666,0,0,0,.325.057h0.369v1.183H81.134V52.547h0.245A1.018,1.018,0,0,0,81.8,52.49a0.319,0.319,0,0,0,.151-0.173A1.62,1.62,0,0,0,82,51.823v-4.7a1.984,1.984,0,0,0-.042-0.518,0.33,0.33,0,0,0-.133-0.185,0.717,0.717,0,0,0-.344-0.057H81.134V45.175h0Zm2.659,1.4V49h0.619a1.9,1.9,0,0,0,.831-0.138,1.056,1.056,0,0,0,.426-0.422,1.378,1.378,0,0,0,.161-0.68,1.185,1.185,0,0,0-.385-0.93,1.23,1.23,0,0,0-.847-0.258H83.793Zm4.344-1.4h6.045l0.826,2.705-0.941.4a3.862,3.862,0,0,0-.558-1.066,1.556,1.556,0,0,0-.706-0.538,2.794,2.794,0,0,0-.9-0.132H90.8v2.135h0.364a1.4,1.4,0,0,0,.553-0.071,0.406,0.406,0,0,0,.2-0.219,1.831,1.831,0,0,0,.062-0.6V47.463H92.9V51.08H91.978V50.715a1.467,1.467,0,0,0-.075-0.549,0.431,0.431,0,0,0-.206-0.232,1.623,1.623,0,0,0-.576-0.062H90.8v1.962a1.531,1.531,0,0,0,.025.38,0.2,0.2,0,0,0,.1.105,0.915,0.915,0,0,0,.324.036h0.608A2.6,2.6,0,0,0,93,52.127a2.289,2.289,0,0,0,.833-0.744,3.845,3.845,0,0,0,.564-1.216l0.95,0.386L94.4,53.731H88.137V52.547h0.181a1.239,1.239,0,0,0,.488-0.063,0.34,0.34,0,0,0,.177-0.214,2.822,2.822,0,0,0,.027-0.52V47.089a1.781,1.781,0,0,0-.044-0.5,0.347,0.347,0,0,0-.139-0.175,0.8,0.8,0,0,0-.369-0.057h-0.32V45.175h0Zm7.633,0h3.536V46.36H98.978a0.736,0.736,0,0,0-.368.064,0.36,0.36,0,0,0-.14.182,2.072,2.072,0,0,0-.04.521v1.49h2.638v-1.6a1.7,1.7,0,0,0-.031-0.4,0.31,0.31,0,0,0-.142-0.2,1.066,1.066,0,0,0-.435-0.054h-0.275V45.175h3.547V46.36h-0.3a0.923,0.923,0,0,0-.4.057,0.3,0.3,0,0,0-.138.17,2.165,2.165,0,0,0-.039.54v4.636a1.828,1.828,0,0,0,.05.555,0.315,0.315,0,0,0,.15.176,1.237,1.237,0,0,0,.465.054h0.207v1.183h-3.547V52.547h0.234a1.049,1.049,0,0,0,.443-0.063,0.318,0.318,0,0,0,.161-0.178,1.921,1.921,0,0,0,.045-0.545V49.953H98.429v1.809a2.784,2.784,0,0,0,.03.532,0.324,0.324,0,0,0,.161.2,1.239,1.239,0,0,0,.442.052h0.245v1.183H95.77V52.547h0.239a0.986,0.986,0,0,0,.42-0.063,0.319,0.319,0,0,0,.163-0.172,1.627,1.627,0,0,0,.044-0.484V47.18a2.237,2.237,0,0,0-.044-0.567,0.342,0.342,0,0,0-.137-0.192,0.726,0.726,0,0,0-.364-0.062H95.77V45.175h0Zm10.137,1.185V45.175h6.476V46.36h-0.29a0.617,0.617,0,0,0-.479.129,1.274,1.274,0,0,0-.1.638v4.636a1.245,1.245,0,0,0,.106.661,0.791,0.791,0,0,0,.553.125h0.207l0.769,2.52-0.946.4a3.34,3.34,0,0,0-.7-1.236,1.9,1.9,0,0,0-1.464-.5H106.9a1.9,1.9,0,0,0-1.459.5,3.37,3.37,0,0,0-.7,1.239l-0.941-.4,0.768-2.52h0.266a0.707,0.707,0,0,0,.685-0.633L106.8,47.18a1.239,1.239,0,0,0,.052-0.306,0.506,0.506,0,0,0-.619-0.515h-0.322Zm3.817,6.033V46.519h-1.573l-1.325,5.316a1.064,1.064,0,0,0-.036.241c0,0.212.167,0.317,0.5,0.317h2.43Zm-80.6-30.185V25.2a9.591,9.591,0,0,0-4.11-1.374,2.421,2.421,0,0,0-1.389.35,1.044,1.044,0,0,0-.517.913,1.2,1.2,0,0,0,.371.834,6.4,6.4,0,0,0,1.81,1.021,17.814,17.814,0,0,1,2.3,1.16,4.812,4.812,0,0,1,1.489,1.512,4.481,4.481,0,0,1,.628,2.469,4.386,4.386,0,0,1-1.37,3.388,5.13,5.13,0,0,1-3.607,1.262,8.452,8.452,0,0,1-4.681-1.484v-3.3a12.338,12.338,0,0,0,2.3,1.5,4.928,4.928,0,0,0,2.127.471q1.9,0,1.9-1.413a1.346,1.346,0,0,0-.38-0.911,5.748,5.748,0,0,0-1.835-1.044,17.5,17.5,0,0,1-2.3-1.137,4.667,4.667,0,0,1-1.468-1.5,4.605,4.605,0,0,1-.617-2.5,4.086,4.086,0,0,1,1.347-3.185,5.18,5.18,0,0,1,3.6-1.211,9.665,9.665,0,0,1,4.391,1.184h0Zm12.3-.988h3.231v8.7A7.028,7.028,0,0,1,42.98,35a6.386,6.386,0,0,1-4.8,1.733A6.365,6.365,0,0,1,33.4,34.981a6.947,6.947,0,0,1-1.7-5.045V21.219H34.93v8.807a3.648,3.648,0,0,0,.888,2.564,3.013,3.013,0,0,0,2.326.965,3.063,3.063,0,0,0,2.39-.988,4.009,4.009,0,0,0,.9-2.807V21.219h0Zm19.173,0V36.537H57.882l-7.169-9.812v9.813h-3.23V21.219h2.96l6.929,9.365V21.219H60.6Zm17.127,0v2.807h-5.7v3.422h5.7v2.806h-5.7v6.283H68.8V21.219h8.932Zm9.435-.2a6.764,6.764,0,0,1,5.366,2.364,8.123,8.123,0,0,1,2.054,5.5A8.034,8.034,0,0,1,92.507,34.4a7.311,7.311,0,0,1-10.705.01,8.023,8.023,0,0,1-2.073-5.526,8.129,8.129,0,0,1,2.057-5.5,6.8,6.8,0,0,1,5.382-2.357h0Zm0,12.531a3.759,3.759,0,0,0,2.964-1.286,4.98,4.98,0,0,0,1.121-3.384A4.959,4.959,0,0,0,90.13,25.5a4.078,4.078,0,0,0-5.94,0,4.945,4.945,0,0,0-1.128,3.387,4.966,4.966,0,0,0,1.128,3.384,3.775,3.775,0,0,0,2.976,1.286h0Zm16.639-12.531a6.761,6.761,0,0,1,5.364,2.364,8.117,8.117,0,0,1,2.055,5.5,8.033,8.033,0,0,1-2.079,5.516,7.312,7.312,0,0,1-10.707.01,8.028,8.028,0,0,1-2.072-5.526,8.124,8.124,0,0,1,2.057-5.5,6.8,6.8,0,0,1,5.382-2.357h0Zm0,12.531a3.757,3.757,0,0,0,2.963-1.286,4.981,4.981,0,0,0,1.122-3.384,4.959,4.959,0,0,0-1.122-3.387,4.077,4.077,0,0,0-5.939,0A4.943,4.943,0,0,0,99.7,28.884a4.964,4.964,0,0,0,1.129,3.384,3.771,3.771,0,0,0,2.976,1.286h0Zm9.739-12.335h5.72a6.694,6.694,0,0,1,5.242,2.145,7.975,7.975,0,0,1,1.928,5.544,7.752,7.752,0,0,1-1.956,5.6,7.379,7.379,0,0,1-5.574,2.031h-5.36V21.219h0Zm3.233,2.807v9.7h2.107a3.824,3.824,0,0,0,3.138-1.33,5.4,5.4,0,0,0,1.087-3.515,5.343,5.343,0,0,0-1.1-3.559,3.923,3.923,0,0,0-3.163-1.3h-2.069Zm20.835-1.818V25.2a9.591,9.591,0,0,0-4.11-1.374,2.419,2.419,0,0,0-1.389.35,1.045,1.045,0,0,0-.517.913,1.2,1.2,0,0,0,.371.834,6.394,6.394,0,0,0,1.81,1.021,17.807,17.807,0,0,1,2.3,1.16,4.815,4.815,0,0,1,1.489,1.512,4.481,4.481,0,0,1,.628,2.469,4.387,4.387,0,0,1-1.369,3.388,5.133,5.133,0,0,1-3.607,1.262,8.455,8.455,0,0,1-4.682-1.484v-3.3a12.335,12.335,0,0,0,2.305,1.5,4.929,4.929,0,0,0,2.127.471q1.9,0,1.9-1.413a1.344,1.344,0,0,0-.38-0.911,5.754,5.754,0,0,0-1.835-1.044,17.486,17.486,0,0,1-2.3-1.137,4.674,4.674,0,0,1-1.468-1.5,4.611,4.611,0,0,1-.617-2.5,4.086,4.086,0,0,1,1.347-3.185,5.18,5.18,0,0,1,3.6-1.211A9.662,9.662,0,0,1,137.613,22.207Z" transform="translate(-19.781 -10.563)"/>
</svg>
