<svg xmlns="http://www.w3.org/2000/svg" width="128.719" height="48.563" viewBox="0 0 128.719 48.563"><defs><style>.cls-1{fill:#579e10;fill-rule:evenodd}</style></defs><path id="logo_copy_8" data-name="logo copy 8" class="cls-1" d="M103.505 10.554s-.153 11.615-8.725 11.615c-6.059 0-1.424-6.465 1.089-7.72 3.467-1.862 5.473-2.149 7.636-3.895zm-4.636 6.087s-9.79 2.816-10.479 10.7c1.91-6.216 10.479-10.7 10.479-10.7zM20.142 40.307h117.826v18.8H20.142v-18.8zm121.93-24.889v-3.857h-1.217v-.816h3.208v.816h-1.189v3.857h-.8zm2.464 0v-4.673h1.256l.734 3.222.711-3.222h1.256v4.673h-.764v-3.727l-.86 3.728h-.719l-.85-3.728v3.728h-.763zM44.954 45.175H51l.826 2.705-.942.4a3.84 3.84 0 0 0-.558-1.066 1.549 1.549 0 0 0-.705-.538 2.8 2.8 0 0 0-.9-.132h-1.107v2.135h.364a1.4 1.4 0 0 0 .553-.071.405.405 0 0 0 .2-.219 1.825 1.825 0 0 0 .062-.6v-.326h.925v3.617H48.8v-.365a1.476 1.476 0 0 0-.075-.549.43.43 0 0 0-.206-.232 1.628 1.628 0 0 0-.576-.062h-.329v1.962a1.541 1.541 0 0 0 .024.38.2.2 0 0 0 .1.105.921.921 0 0 0 .325.036h.608a2.591 2.591 0 0 0 1.148-.229 2.282 2.282 0 0 0 .833-.744 3.853 3.853 0 0 0 .564-1.216l.949.386-.949 3.178h-6.262v-1.183h.182a1.235 1.235 0 0 0 .487-.063.341.341 0 0 0 .177-.214 2.83 2.83 0 0 0 .026-.52v-4.661a1.776 1.776 0 0 0-.045-.5.347.347 0 0 0-.138-.175.8.8 0 0 0-.369-.057h-.32v-1.182zm7.65 0h3.531v1.185H55.9a1.1 1.1 0 0 0-.415.043.39.39 0 0 0-.179.19 1.27 1.27 0 0 0-.055.461v2.273l2.258-2.471a1.625 1.625 0 0 0 .183-.224.249.249 0 0 0 .03-.1.151.151 0 0 0-.059-.129.62.62 0 0 0-.305-.043h-.289v-1.185h3.278v1.185h-.11a1.274 1.274 0 0 0-.316.027.724.724 0 0 0-.216.121 2.466 2.466 0 0 0-.33.3l-1.75 1.792 2.086 3.33a1.968 1.968 0 0 0 .4.508.863.863 0 0 0 .479.112h.14v1.183h-3.661v-1.186h.146a1.51 1.51 0 0 0 .485-.047.128.128 0 0 0 .085-.111 1.094 1.094 0 0 0-.16-.35L56.353 49.9l-1.1 1.11v.864a1.286 1.286 0 0 0 .052.442.333.333 0 0 0 .149.174.914.914 0 0 0 .386.054h.3v1.183H52.6v-1.18h.264a.993.993 0 0 0 .412-.058.341.341 0 0 0 .149-.189 1.761 1.761 0 0 0 .042-.5v-4.674a1.82 1.82 0 0 0-.046-.51.373.373 0 0 0-.15-.193.772.772 0 0 0-.371-.063h-.3v-1.185zM65 45.027a3.511 3.511 0 0 1 2.792 1.24 4.707 4.707 0 0 1 1.067 3.182 5.249 5.249 0 0 1-.49 2.318 3.706 3.706 0 0 1-1.347 1.562 3.776 3.776 0 0 1-2.075.548 3.525 3.525 0 0 1-2.628-1.043 4.58 4.58 0 0 1-1.236-3.36 4.7 4.7 0 0 1 1.083-3.2A3.574 3.574 0 0 1 65 45.027zm.021 1.362a1.5 1.5 0 0 0-1.314.73 4.2 4.2 0 0 0-.614 2.374 4.058 4.058 0 0 0 .571 2.3 1.536 1.536 0 0 0 2.607 0 4.112 4.112 0 0 0 .576-2.312 5.12 5.12 0 0 0-.247-1.712 2.3 2.3 0 0 0-.668-1.036 1.424 1.424 0 0 0-.913-.344zm4.71 3.489h2.815v1.465h-2.815v-1.465zm6.387-1.313h1.652a2.6 2.6 0 0 1 1.971.744 2.559 2.559 0 0 1 .714 1.846 2.722 2.722 0 0 1-.649 1.8 2.6 2.6 0 0 1-2.1.777h-4.247v-1.185h.349a.487.487 0 0 0 .436-.142 1.429 1.429 0 0 0 .084-.613v-4.7a1.1 1.1 0 0 0-.105-.589.656.656 0 0 0-.523-.143h-.241v-1.185h6.047l.824 2.705-.939.4a2.922 2.922 0 0 0-.849-1.362 2.112 2.112 0 0 0-1.318-.374h-1.106v2.023zm0 3.773h1.221a1.154 1.154 0 0 0 .948-.354 1.271 1.271 0 0 0 .287-.836 1.288 1.288 0 0 0-.2-.743 1.02 1.02 0 0 0-.461-.4 2.119 2.119 0 0 0-.762-.105h-1.033v2.435zm5.016-7.163h3.828a3.566 3.566 0 0 1 1.209.176 2.148 2.148 0 0 1 .824.531 2.493 2.493 0 0 1 .534.842 2.886 2.886 0 0 1 .186 1.033A2.546 2.546 0 0 1 87 49.6a2.592 2.592 0 0 1-1.969.743h-1.238v1.6a1.166 1.166 0 0 0 .037.38.325.325 0 0 0 .142.171.666.666 0 0 0 .325.057h.369v1.183h-3.532v-1.187h.245a1.018 1.018 0 0 0 .421-.057.319.319 0 0 0 .151-.173 1.62 1.62 0 0 0 .049-.494v-4.7a1.984 1.984 0 0 0-.042-.518.33.33 0 0 0-.133-.185.717.717 0 0 0-.344-.057h-.347v-1.188zm2.659 1.4V49h.619a1.9 1.9 0 0 0 .831-.138 1.056 1.056 0 0 0 .426-.422 1.378 1.378 0 0 0 .161-.68 1.185 1.185 0 0 0-.385-.93 1.23 1.23 0 0 0-.847-.258h-.805zm4.344-1.4h6.045l.826 2.705-.941.4a3.862 3.862 0 0 0-.558-1.066 1.556 1.556 0 0 0-.706-.538 2.794 2.794 0 0 0-.9-.132H90.8v2.135h.364a1.4 1.4 0 0 0 .553-.071.406.406 0 0 0 .2-.219 1.831 1.831 0 0 0 .062-.6v-.326h.921v3.617h-.922v-.365a1.467 1.467 0 0 0-.075-.549.431.431 0 0 0-.206-.232 1.623 1.623 0 0 0-.576-.062H90.8v1.962a1.531 1.531 0 0 0 .025.38.2.2 0 0 0 .1.105.915.915 0 0 0 .324.036h.608A2.6 2.6 0 0 0 93 52.127a2.289 2.289 0 0 0 .833-.744 3.845 3.845 0 0 0 .564-1.216l.95.386-.947 3.178h-6.263v-1.184h.181a1.239 1.239 0 0 0 .488-.063.34.34 0 0 0 .177-.214 2.822 2.822 0 0 0 .027-.52v-4.661a1.781 1.781 0 0 0-.044-.5.347.347 0 0 0-.139-.175.8.8 0 0 0-.369-.057h-.32v-1.182zm7.633 0h3.536v1.185h-.328a.736.736 0 0 0-.368.064.36.36 0 0 0-.14.182 2.072 2.072 0 0 0-.04.521v1.49h2.638v-1.6a1.7 1.7 0 0 0-.031-.4.31.31 0 0 0-.142-.2 1.066 1.066 0 0 0-.435-.054h-.275v-1.188h3.547v1.185h-.3a.923.923 0 0 0-.4.057.3.3 0 0 0-.138.17 2.165 2.165 0 0 0-.039.54v4.636a1.828 1.828 0 0 0 .05.555.315.315 0 0 0 .15.176 1.237 1.237 0 0 0 .465.054h.207v1.183h-3.547v-1.184h.234a1.049 1.049 0 0 0 .443-.063.318.318 0 0 0 .161-.178 1.921 1.921 0 0 0 .045-.545v-1.808h-2.634v1.809a2.784 2.784 0 0 0 .03.532.324.324 0 0 0 .161.2 1.239 1.239 0 0 0 .442.052h.245v1.183H95.77v-1.182h.239a.986.986 0 0 0 .42-.063.319.319 0 0 0 .163-.172 1.627 1.627 0 0 0 .044-.484V47.18a2.237 2.237 0 0 0-.044-.567.342.342 0 0 0-.137-.192.726.726 0 0 0-.364-.062h-.321v-1.184zm10.137 1.185v-1.185h6.476v1.185h-.29a.617.617 0 0 0-.479.129 1.274 1.274 0 0 0-.1.638v4.636a1.245 1.245 0 0 0 .106.661.791.791 0 0 0 .553.125h.207l.769 2.52-.946.4a3.34 3.34 0 0 0-.7-1.236 1.9 1.9 0 0 0-1.464-.5H106.9a1.9 1.9 0 0 0-1.459.5 3.37 3.37 0 0 0-.7 1.239l-.941-.4.768-2.52h.266a.707.707 0 0 0 .685-.633l1.281-4.739a1.239 1.239 0 0 0 .052-.306.506.506 0 0 0-.619-.515h-.322zm3.817 6.033v-5.874h-1.573l-1.325 5.316a1.064 1.064 0 0 0-.036.241c0 .212.167.317.5.317h2.43zm-80.6-30.185V25.2a9.591 9.591 0 0 0-4.11-1.374 2.421 2.421 0 0 0-1.389.35 1.044 1.044 0 0 0-.517.913 1.2 1.2 0 0 0 .371.834 6.4 6.4 0 0 0 1.81 1.021 17.814 17.814 0 0 1 2.3 1.16 4.812 4.812 0 0 1 1.489 1.512 4.481 4.481 0 0 1 .628 2.469 4.386 4.386 0 0 1-1.37 3.388 5.13 5.13 0 0 1-3.607 1.262 8.452 8.452 0 0 1-4.681-1.484v-3.3a12.338 12.338 0 0 0 2.3 1.5 4.928 4.928 0 0 0 2.127.471q1.9 0 1.9-1.413a1.346 1.346 0 0 0-.38-.911 5.748 5.748 0 0 0-1.835-1.044 17.5 17.5 0 0 1-2.3-1.137 4.667 4.667 0 0 1-1.468-1.5 4.605 4.605 0 0 1-.617-2.5 4.086 4.086 0 0 1 1.347-3.185 5.18 5.18 0 0 1 3.6-1.211 9.665 9.665 0 0 1 4.391 1.184zm12.3-.988h3.231v8.7A7.028 7.028 0 0 1 42.98 35a6.386 6.386 0 0 1-4.8 1.733 6.365 6.365 0 0 1-4.78-1.752 6.947 6.947 0 0 1-1.7-5.045v-8.717h3.23v8.807a3.648 3.648 0 0 0 .888 2.564 3.013 3.013 0 0 0 2.326.965 3.063 3.063 0 0 0 2.39-.988 4.009 4.009 0 0 0 .9-2.807v-8.541zm19.173 0v15.317h-2.715l-7.169-9.812v9.813h-3.23V21.219h2.96l6.929 9.365v-9.365H60.6zm17.127 0v2.807h-5.7v3.422h5.7v2.806h-5.7v6.283H68.8V21.219h8.932zm9.435-.2a6.764 6.764 0 0 1 5.366 2.364 8.123 8.123 0 0 1 2.054 5.5 8.034 8.034 0 0 1-2.072 5.516 7.311 7.311 0 0 1-10.705.01 8.023 8.023 0 0 1-2.073-5.526 8.129 8.129 0 0 1 2.057-5.5 6.8 6.8 0 0 1 5.382-2.357zm0 12.531a3.759 3.759 0 0 0 2.964-1.286 4.98 4.98 0 0 0 1.121-3.384A4.959 4.959 0 0 0 90.13 25.5a4.078 4.078 0 0 0-5.94 0 4.945 4.945 0 0 0-1.128 3.387 4.966 4.966 0 0 0 1.128 3.384 3.775 3.775 0 0 0 2.976 1.286zm16.639-12.531a6.761 6.761 0 0 1 5.364 2.364 8.117 8.117 0 0 1 2.055 5.5 8.033 8.033 0 0 1-2.079 5.516 7.312 7.312 0 0 1-10.707.01 8.028 8.028 0 0 1-2.072-5.526 8.124 8.124 0 0 1 2.057-5.5 6.8 6.8 0 0 1 5.382-2.357zm0 12.531a3.757 3.757 0 0 0 2.963-1.286 4.981 4.981 0 0 0 1.122-3.384 4.959 4.959 0 0 0-1.122-3.387 4.077 4.077 0 0 0-5.939 0 4.943 4.943 0 0 0-1.122 3.39 4.964 4.964 0 0 0 1.129 3.384 3.771 3.771 0 0 0 2.976 1.286zm9.739-12.335h5.72a6.694 6.694 0 0 1 5.242 2.145 7.975 7.975 0 0 1 1.928 5.544 7.752 7.752 0 0 1-1.956 5.6 7.379 7.379 0 0 1-5.574 2.031h-5.36V21.219zm3.233 2.807v9.7h2.107a3.824 3.824 0 0 0 3.138-1.33 5.4 5.4 0 0 0 1.087-3.515 5.343 5.343 0 0 0-1.1-3.559 3.923 3.923 0 0 0-3.163-1.3h-2.069zm20.835-1.818V25.2a9.591 9.591 0 0 0-4.11-1.374 2.419 2.419 0 0 0-1.389.35 1.045 1.045 0 0 0-.517.913 1.2 1.2 0 0 0 .371.834 6.394 6.394 0 0 0 1.81 1.021 17.807 17.807 0 0 1 2.3 1.16 4.815 4.815 0 0 1 1.489 1.512 4.481 4.481 0 0 1 .628 2.469 4.387 4.387 0 0 1-1.369 3.388 5.133 5.133 0 0 1-3.607 1.262 8.455 8.455 0 0 1-4.682-1.484v-3.3a12.335 12.335 0 0 0 2.305 1.5 4.929 4.929 0 0 0 2.127.471q1.9 0 1.9-1.413a1.344 1.344 0 0 0-.38-.911 5.754 5.754 0 0 0-1.835-1.044 17.486 17.486 0 0 1-2.3-1.137 4.674 4.674 0 0 1-1.468-1.5 4.611 4.611 0 0 1-.617-2.5 4.086 4.086 0 0 1 1.347-3.185 5.18 5.18 0 0 1 3.6-1.211 9.662 9.662 0 0 1 4.405 1.186z" transform="translate(-19.781 -10.563)"/></svg>